# xmcd
#
# Track frame offsets:
# 150
# 15106
# 29788
# 45212
# 62419
# 77941
# 95652
# 109775
# 121786
# 137602
# 149946
# 163343
# 178115
# 192203
#
# Disc length: 2912 seconds
#
#
# Revision: 1
# Processed by: cddbd v1.5.1PL0 Copyright (c) Steve Scherf et al.
# Submitted via: FreeRIP 2.942 
#
DISCID=bf0b5e0e
DTITLE=Edson and Hudson - Galera Coração
DYEAR=2004
DGENRE=Country
TTITLE0=Galera Coração
TTITLE1=É Amor Demais
TTITLE2=Tá no Meu Coração
TTITLE3=Por Trás da Chuva de Domingo
TTITLE4=Solte a Garganta
TTITLE5=Não Tem Dia, Não Tem Hora
TTITLE6=Chocolate Com Pimenta
TTITLE7=Chega Junto
TTITLE8=Amor e Ilusão
TTITLE9=Quantas Lembranças
TTITLE10=Abre a Janela
TTITLE11=Por Amar Essa Mulher
TTITLE12=Nossa História
TTITLE13=O Caldeirão Vai Ferver
EXTD=YEAR: 2004
EXTT0=
EXTT1=
EXTT2=
EXTT3=
EXTT4=
EXTT5=
EXTT6=
EXTT7=
EXTT8=
EXTT9=
EXTT10=
EXTT11=
EXTT12=
EXTT13=
PLAYORDER=
